<svg xmlns="http://www.w3.org/2000/svg" viewBox="0 0 240 240">
  <!-- Paisa mascot: "Sprout" — a coin that grows -->
  <defs>
    <linearGradient id="mbody" x1="0" y1="0" x2="0.6" y2="1">
      <stop offset="0" stop-color="#0BA765"/>
      <stop offset="1" stop-color="#05603A"/>
    </linearGradient>
    <linearGradient id="mleaf" x1="0" y1="0" x2="1" y2="1">
      <stop offset="0" stop-color="#32D583"/>
      <stop offset="1" stop-color="#079455"/>
    </linearGradient>
  </defs>
  <ellipse cx="120" cy="216" rx="62" ry="10" fill="#101828" opacity="0.08"/>
  <ellipse cx="98" cy="206" rx="16" ry="9" fill="#054F31"/>
  <ellipse cx="142" cy="206" rx="16" ry="9" fill="#054F31"/>
  <circle cx="38" cy="142" r="13" fill="#05603A"/>
  <circle cx="202" cy="116" r="13" fill="#05603A"/>
  <circle cx="120" cy="128" r="82" fill="url(#mbody)"/>
  <circle cx="120" cy="128" r="70" fill="none" stroke="#ffffff" stroke-opacity="0.28" stroke-width="3" stroke-dasharray="1 8" stroke-linecap="round"/>
  <path d="M120 48 C120 36 120 30 120 22" stroke="#05603A" stroke-width="5" fill="none" stroke-linecap="round"/>
  <path d="M120 26 C108 26 100 18 99 8 C110 8 119 14 120 26 Z" fill="url(#mleaf)"/>
  <path d="M120 30 C132 30 141 22 142 11 C130 11 121 18 120 30 Z" fill="url(#mleaf)"/>
  <circle cx="96" cy="112" r="9.5" fill="#ffffff"/>
  <circle cx="146" cy="112" r="9.5" fill="#ffffff"/>
  <circle cx="98.5" cy="114" r="4.6" fill="#101828"/>
  <circle cx="143.5" cy="114" r="4.6" fill="#101828"/>
  <circle cx="100.2" cy="111.5" r="1.6" fill="#ffffff"/>
  <circle cx="145.2" cy="111.5" r="1.6" fill="#ffffff"/>
  <ellipse cx="84" cy="130" rx="7.5" ry="5" fill="#7BE0AE" opacity="0.5"/>
  <ellipse cx="158" cy="130" rx="7.5" ry="5" fill="#7BE0AE" opacity="0.5"/>
  <path d="M106 134 Q121 148 136 134" stroke="#0B2E20" stroke-width="4.5" fill="none" stroke-linecap="round"/>
  <circle cx="120" cy="174" r="23" fill="#ffffff" opacity="0.16"/>
  <text x="120" y="185" font-family="Arial, Helvetica, sans-serif" font-size="31" font-weight="700" fill="#ffffff" text-anchor="middle">&#8377;</text>
</svg>
